<mxfile host="app.diagrams.net" modified="2022-09-22T03:37:55.836Z" agent="5.0 (Macintosh; Intel Mac OS X 10_15_7) AppleWebKit/605.1.15 (KHTML, like Gecko) Version/15.6.1 Safari/605.1.15" etag="rWi2xPrOjvYpTI2Z15a_" version="20.3.3" type="github">
  <diagram id="J8ha0m6yWlU2wPmlCAvW" name="第 1 页">
    <mxGraphModel dx="1984" dy="917" grid="0" gridSize="10" guides="1" tooltips="1" connect="1" arrows="1" fold="1" page="0" pageScale="1" pageWidth="827" pageHeight="1169" math="0" shadow="0">
      <root>
        <mxCell id="0" />
        <mxCell id="1" parent="0" />
        <mxCell id="apAI1xYETnJJl8LqomOY-84" style="rounded=0;orthogonalLoop=1;jettySize=auto;html=1;exitX=0.07;exitY=0.4;exitDx=0;exitDy=0;exitPerimeter=0;entryX=1;entryY=1;entryDx=0;entryDy=0;entryPerimeter=0;fontColor=#000000;strokeColor=#0000FF;" edge="1" parent="1" source="apAI1xYETnJJl8LqomOY-75" target="apAI1xYETnJJl8LqomOY-76">
          <mxGeometry relative="1" as="geometry" />
        </mxCell>
        <mxCell id="apAI1xYETnJJl8LqomOY-85" style="edgeStyle=none;rounded=0;orthogonalLoop=1;jettySize=auto;html=1;exitX=0.25;exitY=0.25;exitDx=0;exitDy=0;exitPerimeter=0;entryX=0;entryY=0;entryDx=64;entryDy=50;entryPerimeter=0;fontColor=#000000;strokeColor=#0000FF;" edge="1" parent="1" source="apAI1xYETnJJl8LqomOY-75" target="apAI1xYETnJJl8LqomOY-77">
          <mxGeometry relative="1" as="geometry" />
        </mxCell>
        <mxCell id="apAI1xYETnJJl8LqomOY-86" style="edgeStyle=none;rounded=0;orthogonalLoop=1;jettySize=auto;html=1;exitX=0.4;exitY=0.1;exitDx=0;exitDy=0;exitPerimeter=0;entryX=0.668;entryY=1.013;entryDx=0;entryDy=0;entryPerimeter=0;fontColor=#000000;strokeColor=#0000FF;" edge="1" parent="1" source="apAI1xYETnJJl8LqomOY-75" target="apAI1xYETnJJl8LqomOY-78">
          <mxGeometry relative="1" as="geometry" />
        </mxCell>
        <mxCell id="apAI1xYETnJJl8LqomOY-87" style="edgeStyle=none;rounded=0;orthogonalLoop=1;jettySize=auto;html=1;exitX=0.625;exitY=0.2;exitDx=0;exitDy=0;exitPerimeter=0;entryX=0;entryY=0;entryDx=64;entryDy=50;entryPerimeter=0;fontColor=#000000;strokeColor=#0000FF;" edge="1" parent="1" source="apAI1xYETnJJl8LqomOY-75" target="apAI1xYETnJJl8LqomOY-79">
          <mxGeometry relative="1" as="geometry" />
        </mxCell>
        <mxCell id="apAI1xYETnJJl8LqomOY-89" style="edgeStyle=none;rounded=0;orthogonalLoop=1;jettySize=auto;html=1;exitX=0.875;exitY=0.5;exitDx=0;exitDy=0;exitPerimeter=0;entryX=0;entryY=0;entryDx=64;entryDy=50;entryPerimeter=0;strokeColor=#0000FF;fontColor=#000000;" edge="1" parent="1" source="apAI1xYETnJJl8LqomOY-75" target="apAI1xYETnJJl8LqomOY-81">
          <mxGeometry relative="1" as="geometry" />
        </mxCell>
        <mxCell id="apAI1xYETnJJl8LqomOY-90" style="edgeStyle=none;rounded=0;orthogonalLoop=1;jettySize=auto;html=1;exitX=0.96;exitY=0.7;exitDx=0;exitDy=0;exitPerimeter=0;entryX=0;entryY=0;entryDx=10;entryDy=40;entryPerimeter=0;strokeColor=#0000FF;fontColor=#000000;" edge="1" parent="1" source="apAI1xYETnJJl8LqomOY-75" target="apAI1xYETnJJl8LqomOY-82">
          <mxGeometry relative="1" as="geometry" />
        </mxCell>
        <mxCell id="apAI1xYETnJJl8LqomOY-91" style="edgeStyle=none;rounded=0;orthogonalLoop=1;jettySize=auto;html=1;exitX=0.96;exitY=0.7;exitDx=0;exitDy=0;exitPerimeter=0;entryX=0;entryY=0;entryDx=0;entryDy=30;entryPerimeter=0;strokeColor=#0000FF;fontColor=#000000;" edge="1" parent="1" source="apAI1xYETnJJl8LqomOY-75" target="apAI1xYETnJJl8LqomOY-83">
          <mxGeometry relative="1" as="geometry" />
        </mxCell>
        <mxCell id="apAI1xYETnJJl8LqomOY-103" style="edgeStyle=none;rounded=0;orthogonalLoop=1;jettySize=auto;html=1;exitX=0.55;exitY=0.95;exitDx=0;exitDy=0;exitPerimeter=0;strokeColor=#CC0066;fontColor=#000000;" edge="1" parent="1" source="apAI1xYETnJJl8LqomOY-75" target="apAI1xYETnJJl8LqomOY-102">
          <mxGeometry relative="1" as="geometry" />
        </mxCell>
        <mxCell id="apAI1xYETnJJl8LqomOY-104" value="call" style="edgeLabel;html=1;align=center;verticalAlign=middle;resizable=0;points=[];fontColor=#000000;" vertex="1" connectable="0" parent="apAI1xYETnJJl8LqomOY-103">
          <mxGeometry x="-0.1037" y="-2" relative="1" as="geometry">
            <mxPoint as="offset" />
          </mxGeometry>
        </mxCell>
        <mxCell id="apAI1xYETnJJl8LqomOY-120" style="rounded=0;orthogonalLoop=1;jettySize=auto;html=1;exitX=0.16;exitY=0.55;exitDx=0;exitDy=0;exitPerimeter=0;entryX=0;entryY=0;entryDx=108;entryDy=20;entryPerimeter=0;strokeColor=#0000CC;fontColor=#000000;" edge="1" parent="1" source="apAI1xYETnJJl8LqomOY-75" target="apAI1xYETnJJl8LqomOY-119">
          <mxGeometry relative="1" as="geometry" />
        </mxCell>
        <mxCell id="apAI1xYETnJJl8LqomOY-75" value="MLP_demo" style="ellipse;shape=cloud;whiteSpace=wrap;html=1;" vertex="1" parent="1">
          <mxGeometry x="195" y="692" width="120" height="80" as="geometry" />
        </mxCell>
        <mxCell id="apAI1xYETnJJl8LqomOY-109" style="edgeStyle=orthogonalEdgeStyle;rounded=0;orthogonalLoop=1;jettySize=auto;html=1;exitX=0;exitY=0;exitDx=64;exitDy=50;exitPerimeter=0;entryX=-0.01;entryY=0.497;entryDx=0;entryDy=0;entryPerimeter=0;strokeColor=#7F00FF;fontColor=#000000;" edge="1" parent="1" source="apAI1xYETnJJl8LqomOY-76" target="apAI1xYETnJJl8LqomOY-102">
          <mxGeometry relative="1" as="geometry">
            <Array as="points">
              <mxPoint x="-211" y="900" />
              <mxPoint x="190" y="900" />
            </Array>
          </mxGeometry>
        </mxCell>
        <mxCell id="apAI1xYETnJJl8LqomOY-110" value="input2" style="edgeLabel;html=1;align=center;verticalAlign=middle;resizable=0;points=[];fontColor=#000000;" vertex="1" connectable="0" parent="apAI1xYETnJJl8LqomOY-109">
          <mxGeometry x="0.0127" y="-1" relative="1" as="geometry">
            <mxPoint as="offset" />
          </mxGeometry>
        </mxCell>
        <mxCell id="apAI1xYETnJJl8LqomOY-76" value="&lt;font color=&quot;#000000&quot;&gt;input_dir&lt;/font&gt;" style="shape=cube;whiteSpace=wrap;html=1;boundedLbl=1;backgroundOutline=1;darkOpacity=0.05;darkOpacity2=0.1;fontColor=#67AB9F;" vertex="1" parent="1">
          <mxGeometry x="-275" y="650" width="108" height="50" as="geometry" />
        </mxCell>
        <mxCell id="apAI1xYETnJJl8LqomOY-111" style="edgeStyle=orthogonalEdgeStyle;rounded=0;orthogonalLoop=1;jettySize=auto;html=1;exitX=0;exitY=0;exitDx=64;exitDy=50;exitPerimeter=0;entryX=-0.017;entryY=0.512;entryDx=0;entryDy=0;entryPerimeter=0;strokeColor=#7F00FF;fontColor=#000000;" edge="1" parent="1" source="apAI1xYETnJJl8LqomOY-77" target="apAI1xYETnJJl8LqomOY-102">
          <mxGeometry relative="1" as="geometry">
            <Array as="points">
              <mxPoint x="-56" y="623" />
              <mxPoint x="-56" y="900" />
              <mxPoint x="189" y="900" />
            </Array>
          </mxGeometry>
        </mxCell>
        <mxCell id="apAI1xYETnJJl8LqomOY-112" value="input3" style="edgeLabel;html=1;align=center;verticalAlign=middle;resizable=0;points=[];fontColor=#000000;" vertex="1" connectable="0" parent="apAI1xYETnJJl8LqomOY-111">
          <mxGeometry x="-0.383" relative="1" as="geometry">
            <mxPoint as="offset" />
          </mxGeometry>
        </mxCell>
        <mxCell id="apAI1xYETnJJl8LqomOY-77" value="&lt;font color=&quot;#000000&quot;&gt;output_dir&lt;/font&gt;" style="shape=cube;whiteSpace=wrap;html=1;boundedLbl=1;backgroundOutline=1;darkOpacity=0.05;darkOpacity2=0.1;fontColor=#67AB9F;" vertex="1" parent="1">
          <mxGeometry x="-140" y="573" width="108" height="50" as="geometry" />
        </mxCell>
        <mxCell id="apAI1xYETnJJl8LqomOY-78" value="&lt;font color=&quot;#000000&quot;&gt;&lt;span style=&quot;caret-color: rgb(0, 0, 0);&quot;&gt;log_file&lt;/span&gt;&lt;/font&gt;" style="shape=cube;whiteSpace=wrap;html=1;boundedLbl=1;backgroundOutline=1;darkOpacity=0.05;darkOpacity2=0.1;fontColor=#67AB9F;" vertex="1" parent="1">
          <mxGeometry x="28" y="550" width="108" height="50" as="geometry" />
        </mxCell>
        <mxCell id="apAI1xYETnJJl8LqomOY-107" style="rounded=0;orthogonalLoop=1;jettySize=auto;html=1;strokeColor=#7F00FF;fontColor=#000000;edgeStyle=orthogonalEdgeStyle;" edge="1" parent="1" source="apAI1xYETnJJl8LqomOY-79" target="apAI1xYETnJJl8LqomOY-102">
          <mxGeometry relative="1" as="geometry">
            <Array as="points">
              <mxPoint x="228" y="806" />
              <mxPoint x="228" y="806" />
            </Array>
          </mxGeometry>
        </mxCell>
        <mxCell id="apAI1xYETnJJl8LqomOY-108" value="input1" style="edgeLabel;html=1;align=center;verticalAlign=middle;resizable=0;points=[];fontColor=#000000;" vertex="1" connectable="0" parent="apAI1xYETnJJl8LqomOY-107">
          <mxGeometry x="0.2221" y="-1" relative="1" as="geometry">
            <mxPoint x="1" y="28" as="offset" />
          </mxGeometry>
        </mxCell>
        <mxCell id="apAI1xYETnJJl8LqomOY-79" value="&lt;font color=&quot;#000000&quot;&gt;&lt;span style=&quot;caret-color: rgb(0, 0, 0);&quot;&gt;log_format&lt;/span&gt;&lt;/font&gt;" style="shape=cube;whiteSpace=wrap;html=1;boundedLbl=1;backgroundOutline=1;darkOpacity=0.05;darkOpacity2=0.1;fontColor=#67AB9F;" vertex="1" parent="1">
          <mxGeometry x="204" y="531" width="108" height="50" as="geometry" />
        </mxCell>
        <mxCell id="apAI1xYETnJJl8LqomOY-115" style="edgeStyle=orthogonalEdgeStyle;rounded=0;orthogonalLoop=1;jettySize=auto;html=1;exitX=0;exitY=0;exitDx=64;exitDy=50;exitPerimeter=0;entryX=0.997;entryY=0.648;entryDx=0;entryDy=0;entryPerimeter=0;strokeColor=#7F00FF;fontColor=#000000;" edge="1" parent="1" source="apAI1xYETnJJl8LqomOY-81" target="apAI1xYETnJJl8LqomOY-102">
          <mxGeometry relative="1" as="geometry" />
        </mxCell>
        <mxCell id="apAI1xYETnJJl8LqomOY-116" value="input5" style="edgeLabel;html=1;align=center;verticalAlign=middle;resizable=0;points=[];fontColor=#000000;" vertex="1" connectable="0" parent="apAI1xYETnJJl8LqomOY-115">
          <mxGeometry x="-0.2087" y="1" relative="1" as="geometry">
            <mxPoint as="offset" />
          </mxGeometry>
        </mxCell>
        <mxCell id="apAI1xYETnJJl8LqomOY-81" value="&lt;font color=&quot;#000000&quot;&gt;&lt;span style=&quot;caret-color: rgb(0, 0, 0);&quot;&gt;st&lt;/span&gt;&lt;/font&gt;" style="shape=cube;whiteSpace=wrap;html=1;boundedLbl=1;backgroundOutline=1;darkOpacity=0.05;darkOpacity2=0.1;fontColor=#67AB9F;" vertex="1" parent="1">
          <mxGeometry x="371" y="569" width="108" height="50" as="geometry" />
        </mxCell>
        <mxCell id="apAI1xYETnJJl8LqomOY-113" style="edgeStyle=orthogonalEdgeStyle;rounded=0;orthogonalLoop=1;jettySize=auto;html=1;exitX=0;exitY=0;exitDx=64;exitDy=50;exitPerimeter=0;entryX=1.003;entryY=0.633;entryDx=0;entryDy=0;entryPerimeter=0;strokeColor=#7F00FF;fontColor=#000000;" edge="1" parent="1" source="apAI1xYETnJJl8LqomOY-82" target="apAI1xYETnJJl8LqomOY-102">
          <mxGeometry relative="1" as="geometry" />
        </mxCell>
        <mxCell id="apAI1xYETnJJl8LqomOY-114" value="input4" style="edgeLabel;html=1;align=center;verticalAlign=middle;resizable=0;points=[];fontColor=#000000;" vertex="1" connectable="0" parent="apAI1xYETnJJl8LqomOY-113">
          <mxGeometry x="-0.484" y="-1" relative="1" as="geometry">
            <mxPoint as="offset" />
          </mxGeometry>
        </mxCell>
        <mxCell id="apAI1xYETnJJl8LqomOY-82" value="&lt;font color=&quot;#000000&quot;&gt;&lt;span style=&quot;caret-color: rgb(0, 0, 0);&quot;&gt;depth&lt;/span&gt;&lt;/font&gt;" style="shape=cube;whiteSpace=wrap;html=1;boundedLbl=1;backgroundOutline=1;darkOpacity=0.05;darkOpacity2=0.1;fontColor=#67AB9F;" vertex="1" parent="1">
          <mxGeometry x="552" y="583" width="108" height="50" as="geometry" />
        </mxCell>
        <mxCell id="apAI1xYETnJJl8LqomOY-99" style="edgeStyle=none;rounded=0;orthogonalLoop=1;jettySize=auto;html=1;exitX=0;exitY=0;exitDx=98;exitDy=10;exitPerimeter=0;entryX=0.013;entryY=0.641;entryDx=0;entryDy=0;entryPerimeter=0;strokeColor=#0000FF;fontColor=#000000;" edge="1" parent="1" source="apAI1xYETnJJl8LqomOY-83" target="apAI1xYETnJJl8LqomOY-93">
          <mxGeometry relative="1" as="geometry" />
        </mxCell>
        <mxCell id="apAI1xYETnJJl8LqomOY-100" style="edgeStyle=none;rounded=0;orthogonalLoop=1;jettySize=auto;html=1;exitX=0;exitY=0;exitDx=108;exitDy=35;exitPerimeter=0;entryX=0;entryY=0.5;entryDx=10;entryDy=0;entryPerimeter=0;strokeColor=#0000FF;fontColor=#000000;" edge="1" parent="1" source="apAI1xYETnJJl8LqomOY-83" target="apAI1xYETnJJl8LqomOY-95">
          <mxGeometry relative="1" as="geometry" />
        </mxCell>
        <mxCell id="apAI1xYETnJJl8LqomOY-101" style="edgeStyle=none;rounded=0;orthogonalLoop=1;jettySize=auto;html=1;exitX=1;exitY=1;exitDx=0;exitDy=0;exitPerimeter=0;entryX=0;entryY=0.5;entryDx=0;entryDy=0;entryPerimeter=0;strokeColor=#0000FF;fontColor=#000000;" edge="1" parent="1" source="apAI1xYETnJJl8LqomOY-83" target="apAI1xYETnJJl8LqomOY-97">
          <mxGeometry relative="1" as="geometry" />
        </mxCell>
        <mxCell id="apAI1xYETnJJl8LqomOY-117" style="edgeStyle=orthogonalEdgeStyle;rounded=0;orthogonalLoop=1;jettySize=auto;html=1;exitX=0;exitY=0;exitDx=64;exitDy=50;exitPerimeter=0;entryX=1.009;entryY=0.709;entryDx=0;entryDy=0;entryPerimeter=0;strokeColor=#7F00FF;fontColor=#000000;" edge="1" parent="1" source="apAI1xYETnJJl8LqomOY-83" target="apAI1xYETnJJl8LqomOY-102">
          <mxGeometry relative="1" as="geometry">
            <Array as="points">
              <mxPoint x="742" y="705" />
              <mxPoint x="742" y="910" />
              <mxPoint x="340" y="910" />
            </Array>
          </mxGeometry>
        </mxCell>
        <mxCell id="apAI1xYETnJJl8LqomOY-118" value="input6" style="edgeLabel;html=1;align=center;verticalAlign=middle;resizable=0;points=[];fontColor=#000000;" vertex="1" connectable="0" parent="apAI1xYETnJJl8LqomOY-117">
          <mxGeometry x="-0.8045" relative="1" as="geometry">
            <mxPoint as="offset" />
          </mxGeometry>
        </mxCell>
        <mxCell id="apAI1xYETnJJl8LqomOY-83" value="&lt;font color=&quot;#000000&quot;&gt;&lt;span style=&quot;caret-color: rgb(0, 0, 0);&quot;&gt;regex&lt;/span&gt;&lt;/font&gt;" style="shape=cube;whiteSpace=wrap;html=1;boundedLbl=1;backgroundOutline=1;darkOpacity=0.05;darkOpacity2=0.1;fontColor=#67AB9F;" vertex="1" parent="1">
          <mxGeometry x="681" y="655" width="108" height="50" as="geometry" />
        </mxCell>
        <mxCell id="apAI1xYETnJJl8LqomOY-93" value="" style="verticalLabelPosition=bottom;verticalAlign=top;html=1;shape=mxgraph.basic.rounded_frame;dx=10;fontColor=#000000;" vertex="1" parent="1">
          <mxGeometry x="870" y="540" width="100" height="60" as="geometry" />
        </mxCell>
        <mxCell id="apAI1xYETnJJl8LqomOY-94" value="blockID" style="text;html=1;align=center;verticalAlign=middle;resizable=0;points=[];autosize=1;strokeColor=none;fillColor=none;fontColor=#000000;" vertex="1" parent="1">
          <mxGeometry x="891" y="557" width="58" height="26" as="geometry" />
        </mxCell>
        <mxCell id="apAI1xYETnJJl8LqomOY-145" style="edgeStyle=orthogonalEdgeStyle;rounded=0;orthogonalLoop=1;jettySize=auto;html=1;exitX=1;exitY=0.5;exitDx=0;exitDy=0;exitPerimeter=0;strokeColor=#004C99;fontColor=#000000;startArrow=none;startFill=0;endArrow=classic;endFill=1;" edge="1" parent="1" source="apAI1xYETnJJl8LqomOY-95" target="apAI1xYETnJJl8LqomOY-144">
          <mxGeometry relative="1" as="geometry" />
        </mxCell>
        <mxCell id="apAI1xYETnJJl8LqomOY-95" value="" style="verticalLabelPosition=bottom;verticalAlign=top;html=1;shape=mxgraph.basic.rounded_frame;dx=10;fontColor=#000000;" vertex="1" parent="1">
          <mxGeometry x="885" y="627" width="100" height="60" as="geometry" />
        </mxCell>
        <mxCell id="apAI1xYETnJJl8LqomOY-96" value="IP" style="text;html=1;align=center;verticalAlign=middle;resizable=0;points=[];autosize=1;strokeColor=none;fillColor=none;fontColor=#000000;" vertex="1" parent="1">
          <mxGeometry x="917" y="644" width="29" height="26" as="geometry" />
        </mxCell>
        <mxCell id="apAI1xYETnJJl8LqomOY-147" style="edgeStyle=orthogonalEdgeStyle;rounded=0;orthogonalLoop=1;jettySize=auto;html=1;exitX=1;exitY=0.5;exitDx=0;exitDy=0;exitPerimeter=0;entryX=0;entryY=0.5;entryDx=0;entryDy=0;strokeColor=#004C99;fontColor=#000000;startArrow=none;startFill=0;endArrow=classic;endFill=1;" edge="1" parent="1" source="apAI1xYETnJJl8LqomOY-97" target="apAI1xYETnJJl8LqomOY-146">
          <mxGeometry relative="1" as="geometry" />
        </mxCell>
        <mxCell id="apAI1xYETnJJl8LqomOY-97" value="" style="verticalLabelPosition=bottom;verticalAlign=top;html=1;shape=mxgraph.basic.rounded_frame;dx=10;fontColor=#000000;" vertex="1" parent="1">
          <mxGeometry x="860" y="726" width="100" height="60" as="geometry" />
        </mxCell>
        <mxCell id="apAI1xYETnJJl8LqomOY-98" value="Numbers" style="text;html=1;align=center;verticalAlign=middle;resizable=0;points=[];autosize=1;strokeColor=none;fillColor=none;fontColor=#000000;" vertex="1" parent="1">
          <mxGeometry x="877" y="743" width="67" height="26" as="geometry" />
        </mxCell>
        <mxCell id="apAI1xYETnJJl8LqomOY-102" value="MLP.LogParser" style="labelPosition=center;verticalLabelPosition=middle;align=center;html=1;shape=mxgraph.basic.shaded_button;dx=10;fillColor=#E6E6E6;strokeColor=none;fontColor=#000000;" vertex="1" parent="1">
          <mxGeometry x="191" y="872" width="148" height="60" as="geometry" />
        </mxCell>
        <mxCell id="apAI1xYETnJJl8LqomOY-106" value="define" style="edgeStyle=none;rounded=0;orthogonalLoop=1;jettySize=auto;html=1;exitX=0.4;exitY=0.1;exitDx=0;exitDy=0;exitPerimeter=0;strokeColor=#00CC66;fontColor=#000000;" edge="1" parent="1" source="apAI1xYETnJJl8LqomOY-105" target="apAI1xYETnJJl8LqomOY-102">
          <mxGeometry relative="1" as="geometry" />
        </mxCell>
        <mxCell id="apAI1xYETnJJl8LqomOY-105" value="MLP" style="ellipse;shape=cloud;whiteSpace=wrap;html=1;fontColor=#000000;" vertex="1" parent="1">
          <mxGeometry x="219" y="1001" width="120" height="80" as="geometry" />
        </mxCell>
        <mxCell id="apAI1xYETnJJl8LqomOY-121" value="return" style="edgeStyle=orthogonalEdgeStyle;rounded=0;orthogonalLoop=1;jettySize=auto;html=1;exitX=0;exitY=0;exitDx=64;exitDy=50;exitPerimeter=0;strokeColor=#FF8000;fontColor=#000000;startArrow=classic;startFill=1;endArrow=none;endFill=0;" edge="1" parent="1" source="apAI1xYETnJJl8LqomOY-119" target="apAI1xYETnJJl8LqomOY-102">
          <mxGeometry relative="1" as="geometry">
            <Array as="points">
              <mxPoint x="103" y="875" />
            </Array>
          </mxGeometry>
        </mxCell>
        <mxCell id="apAI1xYETnJJl8LqomOY-124" style="edgeStyle=orthogonalEdgeStyle;rounded=0;orthogonalLoop=1;jettySize=auto;html=1;exitX=0;exitY=0;exitDx=10;exitDy=40;exitPerimeter=0;strokeColor=#660000;fontColor=#000000;startArrow=none;startFill=0;endArrow=classic;endFill=1;" edge="1" parent="1" source="apAI1xYETnJJl8LqomOY-119" target="apAI1xYETnJJl8LqomOY-123">
          <mxGeometry relative="1" as="geometry" />
        </mxCell>
        <mxCell id="apAI1xYETnJJl8LqomOY-125" value="call" style="edgeLabel;html=1;align=center;verticalAlign=middle;resizable=0;points=[];fontColor=#000000;" vertex="1" connectable="0" parent="apAI1xYETnJJl8LqomOY-124">
          <mxGeometry x="0.6417" y="2" relative="1" as="geometry">
            <mxPoint as="offset" />
          </mxGeometry>
        </mxCell>
        <mxCell id="apAI1xYETnJJl8LqomOY-119" value="&lt;font color=&quot;#000000&quot;&gt;&lt;span style=&quot;caret-color: rgb(0, 0, 0);&quot;&gt;parser&lt;/span&gt;&lt;/font&gt;" style="shape=cube;whiteSpace=wrap;html=1;boundedLbl=1;backgroundOutline=1;darkOpacity=0.05;darkOpacity2=0.1;fontColor=#67AB9F;" vertex="1" parent="1">
          <mxGeometry x="39" y="775" width="108" height="50" as="geometry" />
        </mxCell>
        <mxCell id="apAI1xYETnJJl8LqomOY-123" value="parse" style="whiteSpace=wrap;html=1;shape=mxgraph.basic.isocube;isoAngle=15;fontColor=#000000;" vertex="1" parent="1">
          <mxGeometry x="-1" y="944" width="100" height="57" as="geometry" />
        </mxCell>
        <mxCell id="apAI1xYETnJJl8LqomOY-127" style="edgeStyle=orthogonalEdgeStyle;rounded=0;orthogonalLoop=1;jettySize=auto;html=1;exitX=0;exitY=0;exitDx=10;exitDy=40;exitPerimeter=0;entryX=0.314;entryY=0.185;entryDx=0;entryDy=0;entryPerimeter=0;strokeColor=#7F00FF;fontColor=#000000;" edge="1" parent="1" source="apAI1xYETnJJl8LqomOY-78" target="apAI1xYETnJJl8LqomOY-123">
          <mxGeometry relative="1" as="geometry">
            <mxPoint x="-201" y="710" as="sourcePoint" />
            <mxPoint x="199.51999999999998" y="911.8200000000002" as="targetPoint" />
            <Array as="points">
              <mxPoint x="-3" y="590" />
              <mxPoint x="-3" y="955" />
            </Array>
          </mxGeometry>
        </mxCell>
        <mxCell id="apAI1xYETnJJl8LqomOY-128" value="input" style="edgeLabel;html=1;align=center;verticalAlign=middle;resizable=0;points=[];fontColor=#000000;" vertex="1" connectable="0" parent="apAI1xYETnJJl8LqomOY-127">
          <mxGeometry x="0.0127" y="-1" relative="1" as="geometry">
            <mxPoint as="offset" />
          </mxGeometry>
        </mxCell>
        <mxCell id="apAI1xYETnJJl8LqomOY-131" style="edgeStyle=orthogonalEdgeStyle;rounded=0;orthogonalLoop=1;jettySize=auto;html=1;exitX=0.5;exitY=1;exitDx=0;exitDy=0;entryX=0;entryY=0;entryDx=44;entryDy=0;entryPerimeter=0;strokeColor=#004C99;fontColor=#000000;startArrow=none;startFill=0;endArrow=classic;endFill=1;" edge="1" parent="1" source="apAI1xYETnJJl8LqomOY-130" target="apAI1xYETnJJl8LqomOY-78">
          <mxGeometry relative="1" as="geometry" />
        </mxCell>
        <mxCell id="apAI1xYETnJJl8LqomOY-130" value="&lt;div style=&quot;text-align: start; color: rgb(212, 212, 212); background-color: rgb(30, 30, 30); font-family: Menlo, Monaco, &amp;quot;Courier New&amp;quot;, monospace; line-height: 18px;&quot;&gt;&lt;span style=&quot;color: rgb(206, 145, 120);&quot;&gt;&#39;HDFS_2k.log&#39;&lt;/span&gt;&lt;/div&gt;" style="ellipse;whiteSpace=wrap;html=1;fontColor=#000000;" vertex="1" parent="1">
          <mxGeometry x="10" y="436" width="120" height="80" as="geometry" />
        </mxCell>
        <mxCell id="apAI1xYETnJJl8LqomOY-133" style="edgeStyle=orthogonalEdgeStyle;rounded=0;orthogonalLoop=1;jettySize=auto;html=1;exitX=0.5;exitY=1;exitDx=0;exitDy=0;strokeColor=#004C99;fontColor=#000000;startArrow=none;startFill=0;endArrow=classic;endFill=1;" edge="1" parent="1" source="apAI1xYETnJJl8LqomOY-132" target="apAI1xYETnJJl8LqomOY-77">
          <mxGeometry relative="1" as="geometry" />
        </mxCell>
        <mxCell id="apAI1xYETnJJl8LqomOY-132" value="&lt;div style=&quot;text-align: start; color: rgb(212, 212, 212); background-color: rgb(30, 30, 30); font-family: Menlo, Monaco, &amp;quot;Courier New&amp;quot;, monospace; line-height: 18px;&quot;&gt;&lt;div style=&quot;line-height: 18px;&quot;&gt;&lt;span style=&quot;color: rgb(206, 145, 120);&quot;&gt;&#39;MLP_result/&#39;&lt;/span&gt;&lt;/div&gt;&lt;/div&gt;" style="ellipse;whiteSpace=wrap;html=1;fontColor=#000000;" vertex="1" parent="1">
          <mxGeometry x="-146" y="447" width="120" height="80" as="geometry" />
        </mxCell>
        <mxCell id="apAI1xYETnJJl8LqomOY-135" style="edgeStyle=orthogonalEdgeStyle;rounded=0;orthogonalLoop=1;jettySize=auto;html=1;exitX=0.5;exitY=1;exitDx=0;exitDy=0;entryX=0;entryY=0;entryDx=44;entryDy=0;entryPerimeter=0;strokeColor=#004C99;fontColor=#000000;startArrow=none;startFill=0;endArrow=classic;endFill=1;" edge="1" parent="1" source="apAI1xYETnJJl8LqomOY-134" target="apAI1xYETnJJl8LqomOY-76">
          <mxGeometry relative="1" as="geometry" />
        </mxCell>
        <mxCell id="apAI1xYETnJJl8LqomOY-134" value="&lt;div style=&quot;text-align: start; color: rgb(212, 212, 212); background-color: rgb(30, 30, 30); font-family: Menlo, Monaco, &amp;quot;Courier New&amp;quot;, monospace; line-height: 18px;&quot;&gt;&lt;div style=&quot;line-height: 18px;&quot;&gt;&lt;span style=&quot;caret-color: rgba(0, 0, 0, 0); color: rgba(0, 0, 0, 0); font-family: monospace; font-size: 0px; background-color: rgb(255, 255, 255);&quot;&gt;%3CmxGraphModel%3E%3Croot%3E%3CmxCell%20id%3D%220%22%2F%3E%3CmxCell%20id%3D%221%22%20parent%3D%220%22%2F%3E%3CmxCell%20id%3D%222%22%20value%3D%22%26lt%3Bdiv%20style%3D%26quot%3Btext-align%3A%20start%3B%20color%3A%20rgb(212%2C%20212%2C%20212)%3B%20background-color%3A%20rgb(30%2C%2030%2C%2030)%3B%20font-family%3A%20Menlo%2C%20Monaco%2C%20%26amp%3Bquot%3BCourier%20New%26amp%3Bquot%3B%2C%20monospace%3B%20line-height%3A%2018px%3B%26quot%3B%26gt%3B%26lt%3Bdiv%20style%3D%26quot%3Bline-height%3A%2018px%3B%26quot%3B%26gt%3B%26lt%3Bspan%20style%3D%26quot%3Bcolor%3A%20rgb(206%2C%20145%2C%20120)%3B%26quot%3B%26gt%3B&#39;MLP_result%2F&#39;%26lt%3B%2Fspan%26gt%3B%26lt%3B%2Fdiv%26gt%3B%26lt%3B%2Fdiv%26gt%3B%22%20style%3D%22ellipse%3BwhiteSpace%3Dwrap%3Bhtml%3D1%3BfontColor%3D%23000000%3B%22%20vertex%3D%221%22%20parent%3D%221%22%3E%3CmxGeometry%20x%3D%22-146%22%20y%3D%22447%22%20width%3D%22120%22%20height%3D%2280%22%20as%3D%22geometry%22%2F%3E%3C%2FmxCell%3E%3C%2Froot%3E%3C%2FmxGraphModel%3E&lt;/span&gt;&lt;span style=&quot;color: rgb(206, 145, 120);&quot;&gt;&#39;HDFS&#39;&lt;/span&gt;&lt;br&gt;&lt;/div&gt;&lt;/div&gt;" style="ellipse;whiteSpace=wrap;html=1;fontColor=#000000;" vertex="1" parent="1">
          <mxGeometry x="-291" y="516" width="120" height="80" as="geometry" />
        </mxCell>
        <mxCell id="apAI1xYETnJJl8LqomOY-137" style="edgeStyle=orthogonalEdgeStyle;rounded=0;orthogonalLoop=1;jettySize=auto;html=1;exitX=0.5;exitY=1;exitDx=0;exitDy=0;entryX=0;entryY=0;entryDx=44;entryDy=0;entryPerimeter=0;strokeColor=#004C99;fontColor=#000000;startArrow=none;startFill=0;endArrow=classic;endFill=1;" edge="1" parent="1" source="apAI1xYETnJJl8LqomOY-136" target="apAI1xYETnJJl8LqomOY-79">
          <mxGeometry relative="1" as="geometry" />
        </mxCell>
        <mxCell id="apAI1xYETnJJl8LqomOY-136" value="&lt;div style=&quot;text-align: start; color: rgb(212, 212, 212); background-color: rgb(30, 30, 30); font-family: Menlo, Monaco, &amp;quot;Courier New&amp;quot;, monospace; line-height: 18px;&quot;&gt;&lt;div style=&quot;line-height: 18px;&quot;&gt;&lt;span style=&quot;color: rgb(206, 145, 120);&quot;&gt;&#39;&amp;lt;Date&amp;gt; &amp;lt;Time&amp;gt; &amp;lt;Pid&amp;gt; &amp;lt;Level&amp;gt; &amp;lt;Component&amp;gt;: &amp;lt;Content&amp;gt;&#39;&lt;/span&gt;&lt;/div&gt;&lt;/div&gt;" style="ellipse;whiteSpace=wrap;html=1;fontColor=#000000;" vertex="1" parent="1">
          <mxGeometry x="53" y="364" width="391" height="80" as="geometry" />
        </mxCell>
        <mxCell id="apAI1xYETnJJl8LqomOY-139" style="edgeStyle=orthogonalEdgeStyle;rounded=0;orthogonalLoop=1;jettySize=auto;html=1;exitX=0.5;exitY=1;exitDx=0;exitDy=0;entryX=0;entryY=0;entryDx=44;entryDy=0;entryPerimeter=0;strokeColor=#004C99;fontColor=#000000;startArrow=none;startFill=0;endArrow=classic;endFill=1;" edge="1" parent="1" source="apAI1xYETnJJl8LqomOY-138" target="apAI1xYETnJJl8LqomOY-81">
          <mxGeometry relative="1" as="geometry" />
        </mxCell>
        <mxCell id="apAI1xYETnJJl8LqomOY-138" value="&lt;div style=&quot;text-align: start; color: rgb(212, 212, 212); background-color: rgb(30, 30, 30); font-family: Menlo, Monaco, &amp;quot;Courier New&amp;quot;, monospace; line-height: 18px;&quot;&gt;&lt;div style=&quot;line-height: 18px;&quot;&gt;&lt;span style=&quot;caret-color: rgb(181, 206, 168); color: rgb(181, 206, 168);&quot;&gt;0.5&lt;/span&gt;&lt;br&gt;&lt;/div&gt;&lt;/div&gt;" style="ellipse;whiteSpace=wrap;html=1;fontColor=#000000;" vertex="1" parent="1">
          <mxGeometry x="361" y="471" width="110" height="56" as="geometry" />
        </mxCell>
        <mxCell id="apAI1xYETnJJl8LqomOY-141" style="edgeStyle=orthogonalEdgeStyle;rounded=0;orthogonalLoop=1;jettySize=auto;html=1;exitX=0.5;exitY=1;exitDx=0;exitDy=0;entryX=0;entryY=0;entryDx=44;entryDy=0;entryPerimeter=0;strokeColor=#004C99;fontColor=#000000;startArrow=none;startFill=0;endArrow=classic;endFill=1;" edge="1" parent="1" source="apAI1xYETnJJl8LqomOY-140" target="apAI1xYETnJJl8LqomOY-82">
          <mxGeometry relative="1" as="geometry" />
        </mxCell>
        <mxCell id="apAI1xYETnJJl8LqomOY-140" value="&lt;div style=&quot;text-align: start; color: rgb(212, 212, 212); background-color: rgb(30, 30, 30); font-family: Menlo, Monaco, &amp;quot;Courier New&amp;quot;, monospace; line-height: 18px;&quot;&gt;&lt;div style=&quot;line-height: 18px;&quot;&gt;&lt;span style=&quot;caret-color: rgb(181, 206, 168); color: rgb(181, 206, 168);&quot;&gt;4&lt;/span&gt;&lt;br&gt;&lt;/div&gt;&lt;/div&gt;" style="ellipse;whiteSpace=wrap;html=1;fontColor=#000000;" vertex="1" parent="1">
          <mxGeometry x="544" y="504" width="96" height="50" as="geometry" />
        </mxCell>
        <mxCell id="apAI1xYETnJJl8LqomOY-143" style="edgeStyle=orthogonalEdgeStyle;rounded=0;orthogonalLoop=1;jettySize=auto;html=1;exitX=0;exitY=0.5;exitDx=0;exitDy=0;entryX=1;entryY=0.5;entryDx=-10;entryDy=0;entryPerimeter=0;strokeColor=#004C99;fontColor=#000000;startArrow=none;startFill=0;endArrow=classic;endFill=1;" edge="1" parent="1" source="apAI1xYETnJJl8LqomOY-142" target="apAI1xYETnJJl8LqomOY-93">
          <mxGeometry relative="1" as="geometry" />
        </mxCell>
        <mxCell id="apAI1xYETnJJl8LqomOY-142" value="&lt;div style=&quot;text-align: start; color: rgb(212, 212, 212); background-color: rgb(30, 30, 30); font-family: Menlo, Monaco, &amp;quot;Courier New&amp;quot;, monospace; line-height: 18px;&quot;&gt;&lt;div style=&quot;line-height: 18px;&quot;&gt;&lt;div style=&quot;line-height: 18px;&quot;&gt;&lt;span style=&quot;color: rgb(86, 156, 214);&quot;&gt;r&lt;/span&gt;&lt;span style=&quot;color: rgb(209, 105, 105);&quot;&gt;&#39;blk_(&lt;/span&gt;|&lt;span style=&quot;color: rgb(209, 105, 105);&quot;&gt;-)[0-9]&lt;/span&gt;+&lt;span style=&quot;color: rgb(209, 105, 105);&quot;&gt;&#39;&lt;/span&gt;&lt;/div&gt;&lt;/div&gt;&lt;/div&gt;" style="ellipse;whiteSpace=wrap;html=1;fontColor=#000000;" vertex="1" parent="1">
          <mxGeometry x="1056" y="545" width="143" height="50" as="geometry" />
        </mxCell>
        <mxCell id="apAI1xYETnJJl8LqomOY-144" value="&lt;div style=&quot;text-align: start; color: rgb(212, 212, 212); background-color: rgb(30, 30, 30); font-family: Menlo, Monaco, &amp;quot;Courier New&amp;quot;, monospace; line-height: 18px;&quot;&gt;&lt;div style=&quot;line-height: 18px;&quot;&gt;&lt;div style=&quot;line-height: 18px;&quot;&gt;&lt;div style=&quot;line-height: 18px;&quot;&gt;&lt;span style=&quot;color: rgb(86, 156, 214);&quot;&gt;r&lt;/span&gt;&lt;span style=&quot;color: rgb(209, 105, 105);&quot;&gt;&#39;(/&lt;/span&gt;|&lt;span style=&quot;color: rgb(209, 105, 105);&quot;&gt;)([0-9]&lt;/span&gt;+&lt;span style=&quot;color: rgb(209, 105, 105);&quot;&gt;\.)&lt;/span&gt;{3}&lt;span style=&quot;color: rgb(209, 105, 105);&quot;&gt;[0-9]&lt;/span&gt;+&lt;span style=&quot;color: rgb(209, 105, 105);&quot;&gt;(:[0-9]&lt;/span&gt;+|&lt;span style=&quot;color: rgb(209, 105, 105);&quot;&gt;)(:&lt;/span&gt;|&lt;span style=&quot;color: rgb(209, 105, 105);&quot;&gt;)&#39;&lt;/span&gt;&lt;/div&gt;&lt;/div&gt;&lt;/div&gt;&lt;/div&gt;" style="ellipse;whiteSpace=wrap;html=1;fontColor=#000000;" vertex="1" parent="1">
          <mxGeometry x="1064" y="632" width="322" height="50" as="geometry" />
        </mxCell>
        <mxCell id="apAI1xYETnJJl8LqomOY-146" value="&lt;div style=&quot;text-align: start; color: rgb(212, 212, 212); background-color: rgb(30, 30, 30); font-family: Menlo, Monaco, &amp;quot;Courier New&amp;quot;, monospace; line-height: 18px;&quot;&gt;&lt;div style=&quot;line-height: 18px;&quot;&gt;&lt;div style=&quot;line-height: 18px;&quot;&gt;&lt;div style=&quot;line-height: 18px;&quot;&gt;&lt;div style=&quot;line-height: 18px;&quot;&gt;&lt;span style=&quot;color: rgb(86, 156, 214);&quot;&gt;r&lt;/span&gt;&lt;span style=&quot;color: rgb(209, 105, 105);&quot;&gt;&#39;&lt;/span&gt;(?&amp;lt;=&lt;span style=&quot;color: rgb(209, 105, 105);&quot;&gt;[&lt;/span&gt;^&lt;span style=&quot;color: rgb(209, 105, 105);&quot;&gt;A-Za-z0-9]&lt;/span&gt;)&lt;span style=&quot;color: rgb(209, 105, 105);&quot;&gt;(\-&lt;/span&gt;?&lt;span style=&quot;color: rgb(209, 105, 105);&quot;&gt;\+&lt;/span&gt;?&lt;span style=&quot;color: rgb(209, 105, 105);&quot;&gt;\d&lt;/span&gt;+&lt;span style=&quot;color: rgb(209, 105, 105);&quot;&gt;)&lt;/span&gt;(?=&lt;span style=&quot;color: rgb(209, 105, 105);&quot;&gt;[&lt;/span&gt;^&lt;span style=&quot;color: rgb(209, 105, 105);&quot;&gt;A-Za-z0-9]&lt;/span&gt;)|&lt;span style=&quot;color: rgb(209, 105, 105);&quot;&gt;[0-9]&lt;/span&gt;+&lt;span style=&quot;color: rgb(209, 105, 105);&quot;&gt;$&#39;&lt;/span&gt;&lt;/div&gt;&lt;/div&gt;&lt;/div&gt;&lt;/div&gt;&lt;/div&gt;" style="ellipse;whiteSpace=wrap;html=1;fontColor=#000000;" vertex="1" parent="1">
          <mxGeometry x="1038" y="732" width="452" height="50" as="geometry" />
        </mxCell>
      </root>
    </mxGraphModel>
  </diagram>
</mxfile>
